<svg width="295" height="168" viewBox="0 0 295 168" fill="none" xmlns="http://www.w3.org/2000/svg">
<path d="M8 146.5L37.255 163.365C43.9964 167.251 52.5969 163.792 54.7705 156.32L57.4815 147.001C58.1455 144.719 59.4725 142.685 61.2942 141.157L99.5433 109.09C104.324 105.082 105.236 98.0793 101.642 92.9803L93.3049 81.1535C89.5293 75.7974 90.7487 68.4028 96.0441 64.5426L132.733 37.7975C137.04 34.6578 142.902 34.7353 147.124 37.9878L174.75 59.2673C176.23 60.4067 177.954 61.1852 179.787 61.5409L201.933 65.8377C207.04 66.8287 212.205 64.4154 214.721 59.8616L217.904 54.1017C219.839 50.6007 223.391 48.2939 227.377 47.9503L245.56 46.3828C248.424 46.1358 251.105 44.8687 253.114 42.812L271 24.5" stroke="#FFD337" stroke-width="5" stroke-linecap="round"/>
<circle cx="8" cy="147" r="8" fill="#FFD337"/>
<circle cx="8" cy="147" r="4" fill="white"/>
<circle opacity="0.15" cx="271" cy="24" r="24" fill="#051F32"/>
<circle cx="271" cy="24" r="8" fill="#051F32"/>
<circle cx="271" cy="24" r="4" fill="white"/>
</svg>
