<svg width="20" height="20" viewBox="0 0 20 20" fill="none" xmlns="http://www.w3.org/2000/svg">
<path d="M4.43241 12.0859L3.73624 14.6848L1.19175 14.7387C0.431327 13.3282 0 11.7145 0 9.99972C0 8.34149 0.40328 6.77776 1.11812 5.40086H1.11867L3.38398 5.81617L4.37632 8.06786C4.16862 8.67337 4.05542 9.32336 4.05542 9.99972C4.0555 10.7338 4.18847 11.4371 4.43241 12.0859Z" fill="#FBBB00"/>
<path d="M19.8253 8.13181C19.9401 8.73673 20 9.36145 20 9.99992C20 10.7158 19.9247 11.4142 19.7813 12.0878C19.2945 14.3801 18.0226 16.3817 16.2605 17.7982L16.2599 17.7976L13.4067 17.6521L13.0028 15.1312C14.1721 14.4455 15.0858 13.3724 15.5671 12.0878H10.2199V8.13181H15.6451H19.8253Z" fill="#518EF8"/>
<path d="M16.2599 17.7978L16.2605 17.7984C14.5468 19.1758 12.3698 20 10.0001 20C6.19182 20 2.88085 17.8715 1.19183 14.7391L4.43249 12.0864C5.27698 14.3402 7.45115 15.9446 10.0001 15.9446C11.0956 15.9446 12.122 15.6484 13.0028 15.1314L16.2599 17.7978Z" fill="#28B446"/>
<path d="M16.383 2.30216L13.1434 4.95432C12.2319 4.38456 11.1544 4.05543 10 4.05543C7.39342 4.05543 5.17858 5.73342 4.37639 8.06804L1.11871 5.40104H1.11816C2.78245 2.19228 6.13518 0 10 0C12.4264 0 14.6511 0.864288 16.383 2.30216Z" fill="#F14336"/>
</svg>
