<svg width="306" height="236" viewBox="0 0 306 236" fill="none" xmlns="http://www.w3.org/2000/svg">
<g clip-path="url(#clip0_106_30)">
<path d="M49.8708 234.767H156.48L156.48 106.973L49.8708 106.973L49.8708 234.767Z" fill="#B75230"/>
<path d="M49.9687 106.831H24.818V234.625H49.9687V106.831Z" fill="#8F3A1E"/>
<path d="M57.4764 234.625L78.6856 182.158H104.592L120.916 197.149L125.984 234.625H57.4764Z" fill="#8F3A1E"/>
<path d="M101.021 106.831L100.27 131.94L97.8302 127.068L96.3286 131.94L95.3902 128.38L92.9502 131.94L90.6979 130.066L89.5717 134.376L88.2579 106.831H101.021Z" fill="#DC8061"/>
<path d="M89.384 234.625L87.507 201.833L84.8794 205.581L84.3163 204.644L82.064 207.642L79.9994 203.52L79.4363 204.457L77.3717 200.897V234.625H89.384Z" fill="#DC8061"/>
<path d="M38.3318 231.252C38.5195 231.252 38.7072 231.065 38.7072 230.878L36.0795 110.766C36.0795 110.579 35.8918 110.391 35.7041 110.391C35.5164 110.391 35.3287 110.579 35.3287 110.766L37.9564 230.878C37.9564 231.065 38.1441 231.252 38.3318 231.252Z" fill="#B75230"/>
<path d="M125.445 234.655H185.506V171.695L125.445 171.695V234.655Z" fill="#FA402F"/>
<path d="M125.421 171.665H95.3901V234.625H125.421V171.665Z" fill="#FF6661"/>
<path d="M169.153 171.665L168.027 184.032L167.276 180.659L166.525 182.721L165.587 181.596L162.771 184.969L161.457 171.665H169.153Z" fill="#FAEBDA"/>
<path d="M169.153 234.625C169.341 234.625 169.153 215.887 169.153 215.887L166.338 220.759L165.399 219.26L163.71 221.883L161.458 218.136L160.894 234.625H169.153Z" fill="#FAEBDA"/>
<path d="M111.344 233.126C111.532 233.126 111.719 232.939 111.719 232.751L110.969 173.539C110.969 173.352 110.781 173.164 110.593 173.164C110.405 173.164 110.218 173.352 110.218 173.539L110.969 232.751C110.969 232.939 111.156 233.126 111.344 233.126Z" fill="#F22C09"/>
<path d="M155.451 234.625L149.258 209.141L142.688 234.625H155.451Z" fill="#F22C09"/>
</g>
<path d="M251.093 155.183H160.936V234.625H251.093V155.183Z" fill="#B75230"/>
<path d="M213.865 155.409L213.114 180.518L210.674 175.646L209.173 180.518L208.234 176.958L205.794 180.518L203.542 178.644L202.416 182.954L201.102 155.409H213.865Z" fill="#DC8061"/>
<path d="M197.494 234.882L195.617 202.09L192.99 205.838L192.427 204.901L190.174 207.899L188.11 203.777L187.547 204.714L185.482 201.153V234.882H197.494Z" fill="#DC8061"/>
<path d="M251.172 234.728H280.398V155.286H251.172V234.728Z" fill="#8F3A1E"/>
<path d="M242.756 155.212H263.434V127.545H242.756V155.212Z" fill="#FA402F"/>
<path d="M242.822 127.516H213.872V155.183H242.822V127.516Z" fill="#FF6661"/>
<path d="M219.021 150.177H236.666V147.437H219.021V150.177Z" fill="#F22C09"/>
<path d="M256.607 132.447C256.607 133.542 257.71 134.638 258.813 134.638C259.916 134.638 261.019 133.542 261.019 132.447C261.019 131.351 260.192 130.255 258.813 130.255C257.435 130.255 256.607 131.351 256.607 132.447Z" fill="#F22C09"/>
<path d="M0 234.519H304.021" stroke="black" stroke-width="1.5"/>
<path d="M71.0048 91.9407C81.5685 61.0936 142.159 53.9039 206.337 75.8819C270.516 97.86 313.979 140.683 303.416 171.53" stroke="white" stroke-width="2" stroke-linecap="round"/>
<circle cx="136.296" cy="8.00261" r="8.00055" transform="rotate(156.88 136.296 8.00261)" fill="white"/>
<circle cx="278.1" cy="116.007" r="8.00055" transform="rotate(156.88 278.1 116.007)" fill="white"/>
<defs>
<clipPath id="clip0_106_30">
<rect width="160.653" height="195.238" fill="white" transform="translate(24.818 39.3738)"/>
</clipPath>
</defs>
</svg>
