<svg width="19" height="12" viewBox="0 0 19 12" fill="none" xmlns="http://www.w3.org/2000/svg">
<path d="M0.778688 4.95552C0.348631 4.95552 0 5.30415 0 5.73421C0 6.16427 0.348631 6.5129 0.778688 6.5129V4.95552ZM18.7719 6.28482C19.076 5.98073 19.076 5.48769 18.7719 5.18359L13.8164 0.22805C13.5123 -0.0760468 13.0192 -0.0760468 12.7151 0.22805C12.4111 0.532147 12.4111 1.02519 12.7151 1.32928L17.1201 5.73421L12.7151 10.1391C12.4111 10.4432 12.4111 10.9363 12.7151 11.2404C13.0192 11.5445 13.5123 11.5445 13.8164 11.2404L18.7719 6.28482ZM0.778688 6.5129H18.2213V4.95552H0.778688V6.5129Z" fill="white"/>
</svg>
