<svg width="17" height="21" viewBox="0 0 17 21" fill="none" xmlns="http://www.w3.org/2000/svg">
<path fill-rule="evenodd" clip-rule="evenodd" d="M8.1201 16.6068L2.18759 19.8569C1.71393 20.103 1.13038 19.9288 0.869255 19.4632V19.4632C0.793707 19.319 0.752949 19.1591 0.750238 18.9963V4.59529C0.750238 1.84876 2.62704 0.750147 5.32779 0.750147H11.6723C14.2906 0.750147 16.2498 1.77552 16.2498 4.41219V18.9963C16.2498 19.2561 16.1466 19.5052 15.9629 19.689C15.7792 19.8727 15.53 19.9759 15.2702 19.9759C15.1045 19.9732 14.9416 19.9325 14.7942 19.8569L8.82505 16.6068C8.60509 16.488 8.34006 16.488 8.1201 16.6068Z" stroke="#BBBFD0" stroke-width="1.5" stroke-linecap="round" stroke-linejoin="round"/>
<path d="M4.82425 7.29601H12.1209" stroke="#BBBFD0" stroke-width="1.5" stroke-linecap="round" stroke-linejoin="round"/>
</svg>
